<?xml version="1.0" encoding="UTF-8" standalone="no"?>
<!DOCTYPE svg PUBLIC "-//W3C//DTD SVG 1.1//EN"
"http://www.w3.org/Graphics/SVG/1.1/DTD/svg11.dtd">
<svg viewBox="0 0 909 1286" version="1.1" xmlns="http://www.w3.org/2000/svg" xmlns:xlink="http://www.w3.org/1999/xlink">
<defs>
<style type="text/css"><![CDATA[
.g0_1{
}
]]></style>
</defs>
<image preserveAspectRatio="none" x="427" y="54" width="55" height="68" xlink:href="img/1.png" />
<path fill-rule="evenodd" d="M77.2,213.1h.7v-2.4h-.7v2.4Z" class="g0_1" />
<path fill-rule="evenodd" d="M77.2,211.4h2.2v-.7H77.2v.7Z" class="g0_1" />
<path fill-rule="evenodd" d="M78.6,213.1h.8v-1h-.8v1Z" class="g0_1" />
<path fill-rule="evenodd" d="M78.6,212.9h.8v-.8h-.8v.8Z" class="g0_1" />
<path fill-rule="evenodd" d="M79.4,211.4H451.8v-.7H79.4v.7Z" class="g0_1" />
<path fill-rule="evenodd" d="M79.4,212.9H451.8v-.8H79.4v.8Z" class="g0_1" />
<path fill-rule="evenodd" d="M451.8,211.4H454v-.7h-2.2v.7Z" class="g0_1" />
<path fill-rule="evenodd" d="M451.8,212.9H454v-.8h-2.2v.8Z" class="g0_1" />
<path fill-rule="evenodd" d="M454,211.4H824.2v-.7H454v.7Z" class="g0_1" />
<path fill-rule="evenodd" d="M454,212.9H824.2v-.8H454v.8Z" class="g0_1" />
<path fill-rule="evenodd" d="M825.7,213.1h.7v-2.4h-.7v2.4Z" class="g0_1" />
<path fill-rule="evenodd" d="M824.2,211.4h2.2v-.7h-2.2v.7Z" class="g0_1" />
<path fill-rule="evenodd" d="M824.2,213.1h.8v-1h-.8v1Z" class="g0_1" />
<path fill-rule="evenodd" d="M824.2,212.9h.8v-.8h-.8v.8Z" class="g0_1" />
<path fill-rule="evenodd" d="M78.6,255.2h.8V213.1h-.8v42.1Z" class="g0_1" />
<path fill-rule="evenodd" d="M77.2,255.2h.7V213.1h-.7v42.1Z" class="g0_1" />
<path fill-rule="evenodd" d="M77.2,257.4h.7v-2.2h-.7v2.2Z" class="g0_1" />
<path fill-rule="evenodd" d="M77.2,257.4h2.2v-.7H77.2v.7Z" class="g0_1" />
<path fill-rule="evenodd" d="M78.6,256h.8v-.8h-.8v.8Z" class="g0_1" />
<path fill-rule="evenodd" d="M78.6,256h.8v-.8h-.8v.8Z" class="g0_1" />
<path fill-rule="evenodd" d="M79.4,257.4H451.8v-.7H79.4v.7Z" class="g0_1" />
<path fill-rule="evenodd" d="M79.4,256H451.8v-.8H79.4v.8Z" class="g0_1" />
<path fill-rule="evenodd" d="M450.7,256h2.2v-.8h-2.2v.8Z" class="g0_1" />
<path fill-rule="evenodd" d="M450.7,257.4h2.2v-.7h-2.2v.7Z" class="g0_1" />
<path fill-rule="evenodd" d="M452.9,257.4H824.2v-.7H452.9v.7Z" class="g0_1" />
<path fill-rule="evenodd" d="M452.9,256H824.2v-.8H452.9v.8Z" class="g0_1" />
<path fill-rule="evenodd" d="M825.7,255.2h.7V213.1h-.7v42.1Z" class="g0_1" />
<path fill-rule="evenodd" d="M824.2,255.2h.8V213.1h-.8v42.1Z" class="g0_1" />
<path fill-rule="evenodd" d="M825.7,257.4h.7v-2.2h-.7v2.2Z" class="g0_1" />
<path fill-rule="evenodd" d="M824.2,257.4h2.2v-.7h-2.2v.7Z" class="g0_1" />
<path fill-rule="evenodd" d="M824.2,256h.8v-.8h-.8v.8Z" class="g0_1" />
<path fill-rule="evenodd" d="M824.2,256h.8v-.8h-.8v.8Z" class="g0_1" />
</svg>